<?xml version="1.0" encoding="UTF-8"?>
<svg width="512" height="512" viewBox="0 0 512 512" fill="none" xmlns="http://www.w3.org/2000/svg">
  <rect width="512" height="512" rx="128" fill="#3B82F6"/>
  <path d="M128 160C128 142.3 142.3 128 160 128H352C369.7 128 384 142.3 384 160V384C384 410.5 362.5 432 336 432H160C142.3 432 128 417.7 128 400V160z" fill="white"/>
  <path d="M208 224C208 215.2 215.2 208 224 208H288C296.8 208 304 215.2 304 224C304 232.8 296.8 240 288 240H224C215.2 240 208 232.8 208 224zM224 272H320C328.8 272 336 279.2 336 288C336 296.8 328.8 304 320 304H224C215.2 304 208 296.8 208 288C208 279.2 215.2 272 224 272zM224 336H320C328.8 336 336 343.2 336 352C336 360.8 328.8 368 320 368H224C215.2 368 208 360.8 208 352C208 343.2 215.2 336 224 336z" fill="#3B82F6"/>
</svg>
